<svg xmlns="http://www.w3.org/2000/svg" xmlns:xlink="http://www.w3.org/1999/xlink" width="26" height="19" viewBox="0 0 26 19">
  <metadata><?xpacket begin="﻿" id="W5M0MpCehiHzreSzNTczkc9d"?>
<x:xmpmeta xmlns:x="adobe:ns:meta/" x:xmptk="Adobe XMP Core 5.6-c138 79.159824, 2016/09/14-01:09:01        ">
</x:xmpmeta><?xpacket end="w"?></metadata>
<defs>
    <style>
      .cls-1 {
        fill: #fff;
        fill-rule: evenodd;
        filter: url(#filter);
      }
    </style>
    <filter id="filter" x="926" y="32" width="26" height="19" filterUnits="userSpaceOnUse">
      <feFlood result="flood" flood-color="#191919"/>
      <feComposite result="composite" operator="in" in2="SourceGraphic"/>
      <feBlend result="blend" in2="SourceGraphic"/>
    </filter>
  </defs>
  <path id="Прямоугольник_скругл._углы_2" data-name="Прямоугольник, скругл. углы 2" class="cls-1" d="M927.5,40h23a1.5,1.5,0,0,1,0,3h-23A1.5,1.5,0,0,1,927.5,40Zm0,8h23a1.5,1.5,0,0,1,0,3h-23A1.5,1.5,0,0,1,927.5,48Zm0-16h23a1.5,1.5,0,0,1,0,3h-23A1.5,1.5,0,0,1,927.5,32Z" transform="translate(-926 -32)"/>
</svg>
